<?xml version="1.0" encoding="UTF-8"?><svg id="Layer_2" xmlns="http://www.w3.org/2000/svg" viewBox="0 0 407.44 412.41"><defs><style>.cls-1{fill:#28eb9c;}</style></defs><g id="Layer_1-2"><path class="cls-1" d="M407.44,234.26v-56.11h-201.24v56.12h105.77c-12.42,46.78-55.14,81.36-105.77,81.36-60.33,0-109.42-49.08-109.42-109.42s49.08-109.42,109.42-109.42c29.23,0,56.7,11.38,77.37,32.05l19.84,19.84,68.44-68.44-39.68-39.68-30.43,30.43c-20.15-14.3-43.12-23.79-67.49-27.92V0h-56.11v43.11c-24.77,4.25-47.66,14.01-67.38,27.98l-30.53-30.53-39.68,39.68,30.53,30.53c-13.98,19.73-23.74,42.62-27.99,67.39H0v56.11h43.1c4.25,24.77,14.01,47.66,27.99,67.39l-30.53,30.53,39.68,39.68,30.53-30.53c19.73,13.97,42.62,23.74,67.39,27.98v43.1h56.11v-43.1c24.77-4.25,47.66-14.01,67.39-27.99l30.53,30.53,39.68-39.68-30.53-30.53c13.98-19.73,23.76-42.62,28.02-67.38h38.1Z"/></g></svg>